<svg width="121" height="26" viewBox="0 0 121 26" fill="none" xmlns="http://www.w3.org/2000/svg">
<path d="M5.29392 10.075V22.75L8.30761 26L8.47052 15.7354L10.1538 16.7917L11.9186 15.7354V26L15.0137 22.75V10.075L10.1538 13.1354L5.29392 10.075Z" fill="white"/>
<path d="M0 3.8147e-06V17.0354L3.39379 20.6916V6.44583L10.0998 10.6709L16.9688 6.44583V20.6916L20.3897 17.0354V3.8147e-06L10.0998 6.44583L0 3.8147e-06Z" fill="white"/>
<path d="M32.1336 19.5V7.58H33.2536L37.7336 14.076H37.1096L41.5736 7.58H42.6936V19.5H41.4136V9.308L41.8296 9.468L37.4456 15.82H37.3816L33.0136 9.468L33.4136 9.308V19.5H32.1336ZM44.2766 19.5L48.6286 7.58H50.0046L54.3566 19.5H53.0126L51.9886 16.588H46.6606L45.6206 19.5H44.2766ZM47.0766 15.388H51.5406L49.1246 8.54H49.5086L47.0766 15.388ZM55.9461 19.5V7.58H57.0661L64.0581 17.612H63.6261V7.58H64.9061V19.5H63.7861L56.7941 9.404H57.2261V19.5H55.9461ZM67.7273 19.5V7.58H71.6473C72.8313 7.58 73.8607 7.82534 74.7353 8.316C75.61 8.796 76.2873 9.484 76.7673 10.38C77.2473 11.2653 77.4873 12.316 77.4873 13.532C77.4873 14.7373 77.2473 15.788 76.7673 16.684C76.2873 17.58 75.61 18.2733 74.7353 18.764C73.8607 19.2547 72.8313 19.5 71.6473 19.5H67.7273ZM69.0073 18.3H71.6473C72.5647 18.3 73.3593 18.108 74.0313 17.724C74.7033 17.3293 75.2207 16.7747 75.5833 16.06C75.9567 15.3453 76.1433 14.5027 76.1433 13.532C76.1433 12.5613 75.9567 11.724 75.5833 11.02C75.21 10.3053 74.6873 9.756 74.0153 9.372C73.3433 8.97734 72.554 8.78 71.6473 8.78H69.0073V18.3ZM79.6023 19.5V7.58H80.8823V18.3H86.1623V19.5H79.6023ZM86.8703 19.5L91.2223 7.58H92.5983L96.9503 19.5H95.6063L94.5823 16.588H89.2543L88.2143 19.5H86.8703ZM89.6703 15.388H94.1343L91.7183 8.54H92.1023L89.6703 15.388ZM103.495 19.692C102.653 19.692 101.879 19.5427 101.175 19.244C100.471 18.9347 99.8581 18.508 99.3355 17.964C98.8235 17.4093 98.4235 16.7587 98.1355 16.012C97.8475 15.2653 97.7035 14.444 97.7035 13.548C97.7035 12.652 97.8475 11.8307 98.1355 11.084C98.4235 10.3373 98.8235 9.68667 99.3355 9.132C99.8581 8.57734 100.471 8.15067 101.175 7.852C101.879 7.54267 102.653 7.388 103.495 7.388C104.306 7.388 105.031 7.532 105.671 7.82C106.322 8.108 106.866 8.48134 107.303 8.94C107.751 9.388 108.071 9.86267 108.263 10.364L107.063 10.892C106.765 10.1987 106.306 9.644 105.687 9.228C105.079 8.80134 104.349 8.588 103.495 8.588C102.621 8.588 101.842 8.796 101.159 9.212C100.477 9.628 99.9435 10.2093 99.5595 10.956C99.1755 11.692 98.9835 12.556 98.9835 13.548C98.9835 14.5293 99.1755 15.3933 99.5595 16.14C99.9435 16.8867 100.477 17.468 101.159 17.884C101.842 18.2893 102.621 18.492 103.495 18.492C104.349 18.492 105.079 18.284 105.687 17.868C106.306 17.452 106.765 16.8973 107.063 16.204L108.263 16.732C108.071 17.2227 107.751 17.6973 107.303 18.156C106.866 18.604 106.322 18.972 105.671 19.26C105.031 19.548 104.306 19.692 103.495 19.692ZM109.323 19.5L113.227 13.532L109.323 7.58H112.171L115.307 12.348H113.915L117.035 7.58H119.883L115.995 13.532L119.883 19.5H117.035L113.915 14.716L115.307 14.732L112.171 19.5H109.323Z" fill="white"/>
</svg>
